<?xml version="1.0" encoding="utf-8"?>
<!-- Generator: Adobe Illustrator 15.1.0, SVG Export Plug-In . SVG Version: 6.00 Build 0)  -->
<!DOCTYPE svg PUBLIC "-//W3C//DTD SVG 1.1//EN" "http://www.w3.org/Graphics/SVG/1.1/DTD/svg11.dtd">
<svg version="1.1" id="Layer_1" xmlns="http://www.w3.org/2000/svg" xmlns:xlink="http://www.w3.org/1999/xlink" x="0px" y="0px"
	 width="614.845px" height="648.116px" viewBox="0 0 614.845 648.116" enable-background="new 0 0 614.845 648.116"
	 xml:space="preserve">
<polygon fill="#FF7F00" points="193.818,324.338 250.596,219.116 364.586,219.116 425.109,318.966 369.236,424.116 255.522,424.116 
	"/>
<polygon fill="#ED1C24" points="199.082,548.34 255.3,443.116 369.863,443.116 430.365,542.999 375.277,648.116 259.593,648.116 "/>
<polygon fill="#9B1212" points="4.038,443.61 59.19,341.168 175.159,340.806 235.362,438.466 178.969,544.116 64.601,544.116 "/>
<polygon fill="#FFD05A" points="357.204,0 357.165,0.001 408.282,100.147 357.598,189.116 252.984,189.116 198.014,103.445 
	238.523,8.401 186.451,104.655 246.973,204.116 362.969,204.116 417.734,99.431 "/>
<polygon fill="#29ABE2" points="557.934,521.116 455.771,521.116 402.1,435.38 452.249,343.625 545.792,331.107 441.628,334.4 
	386.884,436.163 448.064,534.116 563.753,534.116 616.962,432.391 "/>
<polygon fill="#8CD5DD" points="383.563,210.63 439.521,106.034 554.333,105.97 614.845,205.398 559.5,310.116 444.086,310.116 "/>
<polygon fill="#CDF7F9" points="614.845,204.549 551.957,280.116 462.353,280.116 418.033,207.344 457.424,123.461 554.333,105.577 
	"/>
<polygon fill="#FFC610" points="227.187,323.792 262.088,219.116 364.586,219.116 418.83,310.059 365.426,391.116 274.328,391.116 
	"/>
</svg>
